<svg xmlns="http://www.w3.org/2000/svg" width="160" height="160" viewBox="0 0 160 160" role="img" aria-label="Foto profil sementara">
  <rect width="160" height="160" fill="#efe2d0"/>
  <path d="M20 160C23 126 46 108 80 108S137 126 140 160Z" fill="#4a2a5a"/>
  <path d="M66 108L80 124L94 108Z" fill="#fff" opacity=".85"/>
  <rect x="69" y="88" width="22" height="24" rx="8" fill="#b07a55"/>
  <rect x="69" y="92" width="22" height="8" fill="#000" opacity=".08"/>
  <circle cx="53" cy="71" r="6" fill="#b07a55"/><circle cx="107" cy="71" r="6" fill="#b07a55"/>
  <ellipse cx="80" cy="68" rx="27" ry="31" fill="#b07a55"/>
  <g fill="#2b1d18"><ellipse cx="70" cy="71" rx="2.6" ry="3"/><ellipse cx="90" cy="71" rx="2.6" ry="3"/></g>
  <g fill="none" stroke="#1d1716" stroke-width="2.6" stroke-linecap="round"><path d="M64 64Q70 61 76 63"/><path d="M84 63Q90 61 96 64"/></g>
  <path d="M80 74Q77 80 80 82" fill="none" stroke="#000" stroke-opacity=".18" stroke-width="2" stroke-linecap="round"/>
  <path d="M72 87Q80 92 88 87" fill="none" stroke="#5a2f26" stroke-width="2.2" stroke-linecap="round"/>
  <path d="M71 84Q80 80 89 84Q80 86 71 84Z" fill="#1d1716"/>
  <g fill="#1d1716"><g><circle cx="58" cy="54" r="9"/><circle cx="66" cy="42" r="10"/><circle cx="80" cy="37" r="11"/><circle cx="94" cy="42" r="10"/><circle cx="102" cy="54" r="9"/><circle cx="73" cy="46" r="8"/><circle cx="88" cy="46" r="8"/></g></g>
</svg>
